{
	"asset":{
		"generator":"Khronos glTF Blender I/O v3.6.27",
		"version":"2.0"
	},
	"scene":0,
	"scenes":[
		{
			"name":"Scene",
			"nodes":[
				0
			]
		}
	],
	"nodes":[
		{
			"mesh":0,
			"name":"Sph\u00e8re",
			"scale":[
				3.75,
				4.5,
				3.75
			]
		}
	],
	"materials":[
		{
			"doubleSided":true,
			"name":"Mat\u00e9riau.001",
			"pbrMetallicRoughness":{
				"baseColorFactor":[
					0.10702309757471085,
					0.043734993785619736,
					0.01228649914264679,
					1
				],
				"metallicFactor":0,
				"roughnessFactor":1
			}
		}
	],
	"meshes":[
		{
			"name":"Sph\u00e8re",
			"primitives":[
				{
					"attributes":{
						"POSITION":0,
						"NORMAL":1,
						"TEXCOORD_0":2
					},
					"indices":3,
					"material":0
				}
			]
		}
	],
	"accessors":[
		{
			"bufferView":0,
			"componentType":5126,
			"count":2963,
			"max":[
				1.0070528984069824,
				1.028810739517212,
				0.9944815039634705
			],
			"min":[
				-1.0070523023605347,
				-1.0221993923187256,
				-0.994482159614563
			],
			"type":"VEC3"
		},
		{
			"bufferView":1,
			"componentType":5126,
			"count":2963,
			"type":"VEC3"
		},
		{
			"bufferView":2,
			"componentType":5126,
			"count":2963,
			"type":"VEC2"
		},
		{
			"bufferView":3,
			"componentType":5123,
			"count":5817,
			"type":"SCALAR"
		}
	],
	"bufferViews":[
		{
			"buffer":0,
			"byteLength":35556,
			"byteOffset":0,
			"target":34962
		},
		{
			"buffer":0,
			"byteLength":35556,
			"byteOffset":35556,
			"target":34962
		},
		{
			"buffer":0,
			"byteLength":23704,
			"byteOffset":71112,
			"target":34962
		},
		{
			"buffer":0,
			"byteLength":11634,
			"byteOffset":94816,
			"target":34963
		}
	],
	"buffers":[
		{
			"byteLength":106452,
			"uri":"data:application/octet-stream;base64,"
		}
	]
}
