{
  "accessors": [
    {
      "bufferView": 2,
      "componentType": 5126,
      "count": 1062,
      "max": [
        2.4841198921203613,
        5.233920097351074,
        5.078790187835693
      ],
      "min": [
        -2.4792699813842773,
        -2.624690055847168,
        -7.281169891357422
      ],
      "type": "VEC3"
    },
    {
      "bufferView": 2,
      "byteOffset": 12744,
      "componentType": 5126,
      "count": 1062,
      "max": [
        0.9944838285446167,
        0.9993531107902527,
        0.9927982091903687
      ],
      "min": [
        -0.9958900213241577,
        -0.9993882179260254,
        -0.9984009265899658
      ],
      "type": "VEC3"
    },
    {
      "bufferView": 1,
      "componentType": 5126,
      "count": 1062,
      "max": [
        0.9654399752616882,
        0.9211000204086304
      ],
      "min": [
        0.038040000945329666,
        0.03223000094294548
      ],
      "type": "VEC2"
    },
    {
      "bufferView": 0,
      "componentType": 5125,
      "count": 1176,
      "type": "SCALAR"
    }
  ],
  "asset": {
    "extras": {
      "author": "AdrianXY (https://sketchfab.com/adrianxy)",
      "license": "CC-BY-NC-4.0 (http://creativecommons.org/licenses/by-nc/4.0/)",
      "source": "https://sketchfab.com/3d-models/parrot-61470f0d554b4d70a119ceb7a32f0813",
      "title": "Parrot"
    },
    "generator": "Sketchfab-12.68.0",
    "version": "2.0"
  },
  "bufferViews": [
    {
      "buffer": 0,
      "byteLength": 4704,
      "name": "floatBufferViews",
      "target": 34963
    },
    {
      "buffer": 0,
      "byteLength": 8496,
      "byteOffset": 4704,
      "byteStride": 8,
      "name": "floatBufferViews",
      "target": 34962
    },
    {
      "buffer": 0,
      "byteLength": 25488,
      "byteOffset": 13200,
      "byteStride": 12,
      "name": "floatBufferViews",
      "target": 34962
    }
  ],
  "buffers": [
    {
      "byteLength": 38688,
      "uri": "scene.bin"
    }
  ],
  "images": [
    {
      "uri": "textures/material_baseColor.png"
    }
  ],
  "materials": [
    {
      "name": "material",
      "pbrMetallicRoughness": {
        "baseColorTexture": {
          "index": 0
        },
        "metallicFactor": 0.0,
        "roughnessFactor": 0.6
      }
    }
  ],
  "meshes": [
    {
      "name": "Perrot",
      "primitives": [
        {
          "attributes": {
            "NORMAL": 1,
            "POSITION": 0,
            "TEXCOORD_0": 2
          },
          "indices": 3,
          "material": 0,
          "mode": 4
        }
      ]
    }
  ],
  "nodes": [
    {
      "children": [
        1
      ],
      "matrix": [
        0.03630845248699188,
        0.0,
        0.0,
        0.0,
        0.0,
        8.062095987913383e-18,
        -0.03630845248699188,
        0.0,
        0.0,
        0.03630845248699188,
        8.062095987913383e-18,
        0.0,
        0.0,
        0.0,
        0.0,
        1.0
      ],
      "name": "Sketchfab_model"
    },
    {
      "children": [
        2,
        4,
        6,
        8
      ],
      "name": "Root"
    },
    {
      "children": [
        3
      ],
      "matrix": [
        1.0,
        0.0,
        0.0,
        0.0,
        0.0,
        1.0,
        0.0,
        0.0,
        0.0,
        0.0,
        1.0,
        0.0,
        -0.0024300000000000007,
        -0.6581800000000001,
        1.47678,
        1.0
      ],
      "name": "Perrot"
    },
    {
      "mesh": 0,
      "name": "Perrot"
    },
    {
      "children": [
        5
      ],
      "matrix": [
        1.0,
        0.0,
        0.0,
        0.0,
        0.0,
        1.0,
        0.0,
        0.0,
        0.0,
        0.0,
        1.0,
        0.0,
        0.0,
        0.0,
        19.02131,
        1.0
      ],
      "name": "Hemi"
    },
    {
      "name": "Hemi"
    },
    {
      "children": [
        7
      ],
      "matrix": [
        -1.0,
        0.0,
        0.0,
        0.0,
        0.0,
        1.0,
        0.0,
        0.0,
        -0.0,
        0.0,
        -1.0,
        0.0,
        0.0,
        0.0,
        -19.795579999999998,
        1.0
      ],
      "name": "Hemi.001"
    },
    {
      "name": "Hemi.001"
    },
    {
      "children": [
        9
      ],
      "matrix": [
        0.90621,
        0.021570000000000006,
        -0.42227000000000003,
        0.0,
        0.24263,
        0.79138,
        0.5611200000000001,
        0.0,
        0.3462700000000001,
        -0.6109500000000001,
        0.7119200000000001,
        0.0,
        7.677949999999999,
        -14.095490000000002,
        17.913970000000003,
        1.0
      ],
      "name": "Sun"
    },
    {
      "name": "Sun"
    }
  ],
  "samplers": [
    {
      "magFilter": 9729,
      "minFilter": 9987,
      "wrapS": 10497,
      "wrapT": 10497
    }
  ],
  "scene": 0,
  "scenes": [
    {
      "name": "Sketchfab_Scene",
      "nodes": [
        0
      ]
    }
  ],
  "textures": [
    {
      "sampler": 0,
      "source": 0
    }
  ]
}
